<?xml version="1.0" standalone="no"?><svg xmlns="http://www.w3.org/2000/svg" viewBox="0 0 1440 320"><path fill="#FF725E" fill-opacity="1" d="M0,0L26.7,21.3C53.3,43,107,85,160,112C213.3,139,267,149,320,149.3C373.3,149,427,139,480,138.7C533.3,139,587,149,640,176C693.3,203,747,245,800,250.7C853.3,256,907,224,960,213.3C1013.3,203,1067,213,1120,192C1173.3,171,1227,117,1280,80C1333.3,43,1387,21,1413,10.7L1440,0L1440,320L1413.3,320C1386.7,320,1333,320,1280,320C1226.7,320,1173,320,1120,320C1066.7,320,1013,320,960,320C906.7,320,853,320,800,320C746.7,320,693,320,640,320C586.7,320,533,320,480,320C426.7,320,373,320,320,320C266.7,320,213,320,160,320C106.7,320,53,320,27,320L0,320Z"></path></svg>